<?xml version="1.0" encoding="UTF-8"?>
<!DOCTYPE svg PUBLIC "-//W3C//DTD SVG 1.1//EN" "http://www.w3.org/Graphics/SVG/1.1/DTD/svg11.dtd">
<!-- Creator: CorelDRAW -->
<svg xmlns="http://www.w3.org/2000/svg" xml:space="preserve" width="3.314in" height="3.09175in" version="1.1" shape-rendering="geometricPrecision" text-rendering="geometricPrecision" image-rendering="optimizeQuality" fill-rule="evenodd" clip-rule="evenodd"
viewBox="0 0 596.43 556.43"
 xmlns:xlink="http://www.w3.org/1999/xlink"
 xmlns:xodm="http://www.corel.com/coreldraw/odm/2003">
 <g id="Layer_x0020_1">
  <metadata id="CorelCorpID_0Corel-Layer"/>
  <g id="_1797150210432">
   <path fill="#0F766E" d="M66.36 556.43l65.06 0 305.48 0 4.66 0c85.18,0 154.87,-69.69 154.87,-154.87l0 -4.66c0,-1.31 -0.01,-2.61 -0.05,-3.9l-0.01 -0.3c-0.03,-1.29 -0.08,-2.58 -0.15,-3.86l-0.01 -0.24c-0.06,-1.24 -0.14,-2.48 -0.24,-3.72l-0.03 -0.46c-0.09,-1.13 -0.19,-2.27 -0.3,-3.4l-0.1 -0.94c-0.11,-1.08 -0.23,-2.16 -0.37,-3.24l-0.08 -0.6c-0.15,-1.17 -0.31,-2.33 -0.49,-3.49l-0.08 -0.48c-0.18,-1.2 -0.38,-2.4 -0.59,-3.6l-0.01 -0.06c-0.21,-1.15 -0.43,-2.3 -0.66,-3.44l-0.15 -0.74 -0.7 -3.22 -0.11 -0.47c-0.27,-1.18 -0.56,-2.35 -0.86,-3.52l-0.07 -0.3c-0.29,-1.11 -0.59,-2.22 -0.9,-3.32l-0.22 -0.76c-0.3,-1.06 -0.62,-2.11 -0.94,-3.16l-0.14 -0.43c-0.36,-1.13 -0.72,-2.26 -1.1,-3.39l-0.11 -0.32c-0.38,-1.12 -0.77,-2.24 -1.18,-3.35l-0.17 -0.47c-0.4,-1.09 -0.81,-2.17 -1.24,-3.24l-0.11 -0.28c-0.45,-1.13 -0.9,-2.26 -1.38,-3.38l-0.01 -0.02c-0.45,-1.08 -0.92,-2.14 -1.4,-3.2l-0.24 -0.53c-0.5,-1.1 -1.01,-2.19 -1.53,-3.27l-0.04 -0.1c-0.53,-1.09 -1.07,-2.18 -1.62,-3.26l-0.15 -0.29c-0.54,-1.05 -1.08,-2.08 -1.64,-3.11l-0.25 -0.45c-0.55,-1.01 -1.11,-2.01 -1.68,-3l-0.15 -0.27c-2.53,-4.39 -5.26,-8.64 -8.19,-12.75l-0.01 -0.02c-0.72,-1.02 -1.46,-2.03 -2.21,-3.03l-0.08 -0.12c-0.74,-1 -1.51,-1.98 -2.28,-2.96l-0.04 -0.06c-0.75,-0.95 -1.52,-1.9 -2.29,-2.84l-0.21 -0.26c-0.75,-0.91 -1.51,-1.81 -2.28,-2.7l-0.19 -0.22c-0.79,-0.9 -1.57,-1.8 -2.38,-2.68l-0.15 -0.16 -1.1 -1.2 0.18 0.19c-2.04,-2.95 -3.24,-6.52 -3.24,-10.38 0,-3.64 1.07,-7.03 2.91,-9.87l1.26 -1.37 0.15 -0.16c0.74,-0.81 1.47,-1.64 2.19,-2.48l0.48 -0.55c0.69,-0.79 1.36,-1.59 2.03,-2.4l0.46 -0.56 2.04 -2.54 0.29 -0.37c0.7,-0.89 1.39,-1.79 2.07,-2.7l0.3 -0.41c0.7,-0.94 1.41,-1.9 2.09,-2.86l0.01 -0.02c2.92,-4.11 5.65,-8.37 8.19,-12.75l0.15 -0.27c0.57,-0.99 1.13,-1.99 1.68,-3l0.25 -0.45c0.56,-1.03 1.1,-2.07 1.64,-3.11l0.15 -0.29c0.55,-1.08 1.09,-2.16 1.62,-3.26l0.04 -0.1c0.52,-1.08 1.03,-2.17 1.53,-3.27l0.24 -0.53c0.47,-1.04 0.92,-2.08 1.37,-3.13l0.11 -0.26c0.45,-1.06 0.88,-2.13 1.31,-3.21l0.11 -0.28c0.42,-1.07 0.84,-2.16 1.24,-3.24l0.17 -0.47c0.41,-1.11 0.8,-2.23 1.18,-3.35l0.11 -0.32c0.38,-1.12 0.74,-2.25 1.1,-3.39l0.14 -0.43c0.33,-1.05 0.63,-2.1 0.94,-3.16l0.22 -0.76c0.31,-1.1 0.61,-2.21 0.9,-3.32l0.07 -0.3c0.3,-1.17 0.59,-2.34 0.86,-3.52l0.11 -0.47c0.25,-1.07 0.48,-2.14 0.7,-3.22l0.15 -0.74c0.23,-1.14 0.45,-2.29 0.66,-3.44l0.01 -0.06c0.21,-1.19 0.41,-2.39 0.59,-3.6l0.08 -0.48c0.18,-1.16 0.34,-2.32 0.49,-3.49l0.08 -0.6c0.14,-1.07 0.26,-2.16 0.37,-3.24l0.1 -0.94c0.11,-1.13 0.21,-2.26 0.3,-3.4l0.03 -0.46c0.09,-1.24 0.17,-2.47 0.24,-3.72l0.01 -0.24c0.07,-1.28 0.11,-2.57 0.15,-3.86l0.01 -0.3c0.03,-1.3 0.05,-2.6 0.05,-3.9l0 -2.91c0,-86.14 -70.48,-156.62 -156.62,-156.62l-2.91 0 -370.54 0c-36.5,0 -66.36,29.86 -66.36,66.36l0 163.68 0 260.03 0 66.36 66.36 0z"/>
   <path fill="#5BC9AA" d="M66.36 556.43l370.54 0 4.66 0c19.3,0 37.8,-3.59 54.88,-10.11l0 -395.1c0,-33.32 -27.28,-60.58 -60.58,-60.58l-377.47 0c-32.09,0 -58.38,26.29 -58.38,58.38l0 341.05c0,36.5 29.86,66.36 66.36,66.36z"/>
   <path fill="white" d="M412.98 556.43l23.92 0 4.66 0c10.56,0 20.87,-1.07 30.84,-3.11l0 -404.96c0,-16.34 -13.38,-29.71 -29.71,-29.71l-0 0c-16.33,0 -29.71,13.38 -29.71,29.71l0 408.08z"/>
   <path fill="#0F766E" d="M-0 556.43l310.85 0 0 -189c0,-33.32 -27.27,-60.58 -60.59,-60.58l-191.88 0c-32.1,0 -58.38,26.28 -58.38,58.38l0 191.2z"/>
   <path fill="white" d="M227.39 556.43l59.42 0 0 -191.87c0,-16.34 -13.37,-29.71 -29.71,-29.71l-0 0c-16.34,0 -29.71,13.37 -29.71,29.71l0 191.87z"/>
   <rect fill="white" x="138.09" y="122.96" width="87.19" height="148.61" rx="43.6" ry="74.31"/>
   <rect fill="white" x="272.99" y="122.96" width="87.19" height="148.61" rx="43.6" ry="74.31"/>
   <rect fill="#4B4B4B" x="296.92" y="153.34" width="51.4" height="87.6" rx="25.7" ry="43.8"/>
   <circle fill="white" cx="301.71" cy="167.61" r="13.73"/>
   <rect fill="#4B4B4B" x="162.02" y="153.34" width="51.4" height="87.6" rx="25.7" ry="43.8"/>
   <circle fill="white" cx="166.81" cy="167.61" r="13.73"/>
  </g>
 </g>
</svg>
